<svg width="258" height="278" viewBox="0 0 258 278" xmlns="http://www.w3.org/2000/svg"><title>Group</title><g fill="none" fill-rule="evenodd"><path d="M0 34h109" stroke="#3090C1" stroke-width="4"/><path d="M0 52h83" stroke="#3090C1" stroke-width="2"/><path d="M181 142h77M0 227h128.884" stroke="#3090C1" stroke-width="4"/><path d="M0 66h80M178 156h80M0 242h112M0 80h80M178 170h80M0 259h112M0 277h112" stroke="#3090C1" stroke-width="2"/><path d="M186.175 236.9c0-2.545-2.12-4.615-4.728-4.615-2.607 0-4.73 2.07-4.73 4.614s2.123 4.615 4.73 4.615c2.608 0 4.728-2.07 4.728-4.616zm-4.728 2.406c-1.36 0-2.465-1.08-2.465-2.407 0-1.326 1.105-2.407 2.465-2.407 1.36 0 2.466 1.08 2.466 2.406 0 1.327-1.107 2.406-2.466 2.406zm47.096 12.978l-9.924-2.424c-.606-.14-1.22.213-1.373.804-.152.59.215 1.19.822 1.338l9.777 2.39c-4.678 12.472-16.965 21.4-31.346 21.4-14.38 0-26.666-8.928-31.344-21.4l9.776-2.39c.607-.15.975-.747.824-1.338-.153-.59-.765-.945-1.373-.804l-9.925 2.424c-.345-1.162-.625-2.35-.838-3.56h11.038c.624 0 1.13-.495 1.13-1.105 0-.612-.506-1.106-1.13-1.106h-11.352c-.11-1.08-.17-2.174-.17-3.28 0-.203.012-.4.016-.6l11.23 2.742c.093.022.185.034.276.034.508 0 .968-.335 1.098-.837.15-.59-.217-1.19-.824-1.34l-11.66-2.848c.52-5.824 2.615-11.212 5.87-15.757.335-.466.68-.92 1.036-1.367.137-.17.272-.34.41-.508.413-.496.836-.98 1.275-1.45.163-.174.333-.34.5-.512.314-.322.635-.638.962-.947.204-.192.407-.385.614-.572.456-.408.92-.807 1.4-1.19.194-.156.393-.302.59-.454.377-.288.76-.57 1.147-.84.19-.134.378-.27.57-.398.566-.377 1.14-.742 1.73-1.085.094-.056.19-.108.288-.163.59-.337 1.19-.658 1.802-.96.064-.032.127-.064.19-.094.703-.34 1.417-.66 2.146-.954.006 0 .01-.005.015-.008 3.913-1.576 8.194-2.45 12.683-2.45 4.49 0 8.772.874 12.685 2.45.005.002.01.007.014.008.728.294 1.443.613 2.145.954.063.03.127.062.19.095.612.302 1.212.623 1.802.96.096.055.194.107.29.163.588.343 1.163.708 1.727 1.085.192.13.38.264.57.397.388.27.77.553 1.145.84.197.15.4.3.593.455.477.383.942.782 1.398 1.19.21.188.415.382.62.577.323.305.642.618.953.938.17.173.344.343.508.52.438.467.86.95 1.268 1.442.143.172.283.348.423.523.348.437.687.882 1.013 1.337 3.264 4.55 5.366 9.944 5.887 15.778l-11.66 2.848c-.608.15-.975.75-.823 1.34.128.502.59.837 1.096.837.09 0 .183-.012.276-.034l11.23-2.743c.003.2.015.398.015.6 0 1.107-.057 2.202-.168 3.28h-11.353c-.625 0-1.132.495-1.132 1.106 0 .61.507 1.104 1.132 1.104h11.037c-.21 1.21-.49 2.398-.837 3.56zm-61.17-29.053c-1.59-2.34-3.087-5.942-3.804-9.237-.94-4.33-.502-7.583 1.202-8.93.717-.567 1.718-.854 2.976-.854 4.516 0 11.283 3.682 14.687 7.085-.706.298-1.397.62-2.08.96l-.285.144c-.666.337-1.322.69-1.963 1.067l-.055.032c-.594.35-1.175.725-1.745 1.11-.232.155-.458.316-.685.476-.353.25-.7.508-1.044.77-.235.18-.473.355-.703.54-.477.384-.944.782-1.4 1.19-.247.22-.485.447-.726.674-.28.265-.557.534-.828.807-.222.224-.445.446-.66.675-.44.466-.866.942-1.277 1.43-.146.174-.284.352-.425.53-.323.395-.637.8-.942 1.21-.08.11-.168.21-.246.32zm57.88-19.02c1.258 0 2.26.286 2.976.852 1.703 1.348 2.142 4.602 1.202 8.93-.716 3.296-2.215 6.898-3.802 9.236-.083-.115-.176-.22-.26-.335-.296-.397-.6-.787-.91-1.172-.15-.184-.295-.373-.45-.554-.408-.486-.832-.958-1.267-1.42-.218-.232-.443-.456-.666-.682-.27-.273-.546-.54-.825-.805-.24-.227-.477-.454-.723-.673-.458-.41-.926-.807-1.406-1.193-.227-.183-.46-.355-.693-.533-.346-.264-.698-.525-1.056-.778-.223-.157-.447-.315-.675-.47-.575-.385-1.156-.76-1.754-1.115l-.04-.023c-.646-.38-1.307-.736-1.977-1.078l-.282-.14c-.682-.34-1.374-.663-2.08-.96 3.404-3.404 10.17-7.087 14.685-7.087zm9.616 44.514c.625 0 1.13-.495 1.13-1.105 0-.612-.505-1.106-1.13-1.106h-2.906c.104-1.08.165-2.175.165-3.28 0-.387-.02-.768-.032-1.15l2.692-.658c.607-.15.975-.748.824-1.34-.153-.59-.762-.944-1.373-.804l-2.284.56c-.53-5.32-2.29-10.29-5-14.637 1.967-2.552 3.828-6.784 4.69-10.754 1.14-5.243.43-9.187-1.993-11.104-1.13-.892-2.61-1.346-4.4-1.346-5.875 0-13.728 4.87-16.94 8.437-3.7-1.272-7.672-1.973-11.812-1.973-4.138 0-8.113.7-11.812 1.973-3.212-3.568-11.063-8.437-16.94-8.437-1.79 0-3.27.454-4.4 1.346-2.423 1.917-3.13 5.86-1.99 11.105.86 3.97 2.72 8.203 4.69 10.755-2.713 4.347-4.472 9.318-5.003 14.636l-2.284-.558c-.605-.14-1.22.213-1.37.804-.153.592.214 1.19.82 1.34l2.694.657c-.012.383-.03.764-.03 1.15 0 1.106.06 2.2.163 3.28h-2.905c-.625 0-1.132.495-1.132 1.106 0 .61.507 1.104 1.132 1.104h3.19c.23 1.394.547 2.76.94 4.096l-4.05.99c-.608.15-.975.748-.823 1.34.127.5.59.836 1.095.836.09 0 .183-.01.276-.034l4.194-1.024C167.887 268.362 181.06 278 196.5 278c15.442 0 28.616-9.638 33.548-23.072l4.193 1.024c.093.023.185.034.276.034.508 0 .968-.335 1.098-.837.15-.592-.217-1.19-.824-1.34l-4.05-.99c.393-1.336.71-2.702.94-4.096h3.19zm-40.834-1.105c0-1.33 1.106-2.408 2.465-2.408 1.36 0 2.466 1.08 2.466 2.407 0 1.326-1.106 2.404-2.465 2.404-1.358 0-2.464-1.078-2.464-2.405zm14.543 5.08c-.625 0-1.132.496-1.132 1.106 0 2.64-2.202 4.79-4.908 4.79-2.707 0-4.908-2.15-4.908-4.79v-1.722c2.06-.498 3.597-2.304 3.597-4.465 0-2.546-2.123-4.617-4.73-4.617-2.606 0-4.726 2.07-4.726 4.616 0 2.16 1.536 3.966 3.596 4.464v1.722c0 2.64-2.202 4.79-4.908 4.79-2.707 0-4.91-2.15-4.91-4.79 0-.61-.505-1.105-1.13-1.105-.624 0-1.13.496-1.13 1.106 0 3.86 3.216 6.998 7.17 6.998 2.542 0 4.765-1.306 6.04-3.26 1.273 1.954 3.496 3.26 6.038 3.26 3.953 0 7.17-3.14 7.17-6.998 0-.61-.505-1.105-1.13-1.105zm2.975-13.394c-1.36 0-2.465-1.08-2.465-2.407 0-1.326 1.105-2.407 2.465-2.407 1.36 0 2.466 1.08 2.466 2.406 0 1.327-1.106 2.406-2.465 2.406zm0-7.02c-2.607 0-4.73 2.07-4.73 4.613 0 2.544 2.123 4.615 4.73 4.615 2.608 0 4.728-2.07 4.728-4.616 0-2.545-2.12-4.615-4.728-4.615zM52.355 147.234c0-3.323-2.702-6.026-6.024-6.026-3.32 0-6.024 2.703-6.024 6.026 0 3.32 2.703 6.024 6.025 6.024 3.323 0 6.025-2.703 6.025-6.024zm-6.024 3.14c-1.732 0-3.14-1.41-3.14-3.14 0-1.733 1.408-3.14 3.14-3.14 1.733 0 3.143 1.407 3.143 3.14 0 1.73-1.41 3.14-3.142 3.14zm36.316 14.64c-.778-.166-1.545.325-1.715 1.103-.474 2.197-3 3.675-6.284 3.675-2.335 0-6.252-.437-6.252-3.37v-2.248c2.624-.65 4.583-3.008 4.583-5.832 0-3.32-2.703-6.024-6.024-6.024-3.323 0-6.024 2.703-6.024 6.024 0 2.824 1.957 5.18 4.582 5.832v2.248c0 2.933-3.92 3.37-6.254 3.37-3.282 0-5.808-1.478-6.285-3.677-.17-.778-.944-1.267-1.713-1.102-.78.17-1.274.937-1.104 1.715.64 2.945 3.27 5.066 6.803 5.718-.005.037-.024.072-.024.112v11.422c0 5.53 4.5 10.03 10.03 10.03 5.53 0 10.03-4.5 10.03-10.03l-.003-11.35.002-.034-.637-.032c3.837-.508 6.717-2.726 7.392-5.837.17-.777-.325-1.545-1.104-1.714zM63.81 158.34c0-1.732 1.41-3.14 3.143-3.14 1.732 0 3.14 1.408 3.14 3.14 0 1.732-1.408 3.142-3.14 3.142-1.732 0-3.142-1.41-3.142-3.142zm3.155 32.785c-3.94 0-7.147-3.206-7.147-7.147l-.002-11.333c3.277-.09 5.72-.928 7.137-2.43 1.42 1.505 3.87 2.345 7.16 2.432v11.33c0 3.94-3.207 7.147-7.148 7.147zm41.764-15.235c3.02-6.163 4.72-13.08 4.72-20.393 0-13.662-5.922-25.964-15.334-34.48 14.444 3.144 32.906 22.618 32.906 36.077 0 12.75-6.71 18.422-22.293 18.795zm-41.777 23.223c-24.05 0-43.616-19.565-43.616-43.616 0-24.05 19.565-43.615 43.616-43.615 24.05 0 43.616 19.565 43.616 43.614 0 24.05-19.568 43.615-43.617 43.615zm-64.07-42.018c0-13.46 18.463-32.935 32.905-36.076-9.41 8.516-15.334 20.818-15.334 34.48 0 7.31 1.7 14.23 4.72 20.392-15.582-.373-22.292-6.045-22.292-18.795zm131.023 0c0-16.205-23.315-39.407-39.598-39.407-.09 0-.17.042-.257.06-7.635-5.5-16.99-8.75-27.097-8.75-10.107 0-19.463 3.25-27.1 8.75-.087-.018-.167-.06-.257-.06C23.313 117.69 0 140.892 0 157.097c0 19.416 15.237 21.704 26.745 21.714C34.807 192.66 49.805 202 66.953 202s32.144-9.34 40.206-23.19c11.507-.01 26.746-2.297 26.746-21.713zm-46.332-6.724c-1.733 0-3.14-1.41-3.14-3.14 0-1.732 1.407-3.14 3.14-3.14 1.732 0 3.142 1.408 3.142 3.14 0 1.73-1.41 3.14-3.142 3.14zm0-9.165c-3.322 0-6.025 2.703-6.025 6.026 0 3.32 2.702 6.024 6.024 6.024 3.323 0 6.024-2.703 6.024-6.024 0-3.323-2.7-6.026-6.024-6.026z" fill="#4A4A4A"/><g transform="translate(146)"><ellipse fill="#002D5B" cx="86.369" cy="68.383" rx="25.631" ry="25.671"/><ellipse fill="#002D5B" cx="25.631" cy="68.383" rx="25.631" ry="25.671"/><g transform="translate(6.892 58.676)"><ellipse fill="#CA9D52" cx="85.723" cy="11.217" rx="11.2" ry="11.217"/><ellipse fill="#EEBA64" cx="85.508" cy="11.002" rx="7.969" ry="7.982"/><ellipse fill-opacity=".96" fill="#C59A52" cx="11.2" cy="12.08" rx="11.2" ry="11.217"/><ellipse fill="#EEBA64" cx="11.415" cy="11.865" rx="7.969" ry="7.982"/></g><rect fill="#EEBA64" x="18.954" y="25.023" width="72.8" height="103.977" rx="36.4"/><ellipse fill="#002D5B" cx="32.954" cy="34.299" rx="25.631" ry="25.671"/><ellipse fill="#002D5B" cx="53.631" cy="25.671" rx="25.631" ry="25.671"/><ellipse fill="#002D5B" cx="78.185" cy="36.025" rx="25.631" ry="25.671"/><ellipse fill="#717171" cx="37.692" cy="71.834" rx="4.092" ry="4.099"/><ellipse fill="#717171" cx="71.292" cy="71.834" rx="4.092" ry="4.099"/><path d="M54.815 63.445c3.396 0 6.148 2.758 6.148 6.14V89.22c0 2.715-2.76 4.918-6.148 4.918-3.395 0-6.148-2.75-6.148-6.156v-18.38c0-3.4 2.76-6.157 6.148-6.157z" fill="#717171"/><ellipse fill="#002D5B" cx="10.123" cy="48.105" rx="7.969" ry="8.413"/><ellipse fill="#002D5B" cx="100.585" cy="48.105" rx="7.969" ry="8.413"/><path d="M68.734 95.048c1.6-2.31 4.234-2.34 4.808-1.55 0 0 2.37.822.642 5.564-1.73 4.742-7.122 9.153-9.926 10.782-2.804 1.63-5.608 3.02-9.92 3.025-4.312.002-5.577-2.232-5.577-2.232-.98-1.35.445-2.954 3.187-3.624 0 0 7.355-1.533 9.728-3.202 2.373-1.67 7.06-8.764 7.06-8.764z" fill="#002D5B"/></g></g></svg>