<svg height="512" viewBox="0 0 64 64" width="512" xmlns="http://www.w3.org/2000/svg"><g fill="#bddbff"><path d="m36.36 22.88 5.66 5.66-1.41 1.41a1.008 1.008 0 0 1 -1.42 0l-.7-.7-2.83-2.83-.71-.71a1.008 1.008 0 0 1 0-1.42z"/><path d="m26.46 12.98 5.66 5.66-1.41 1.41a1.008 1.008 0 0 1 -1.42 0l-.7-.7-2.83-2.83-.71-.71a1.008 1.008 0 0 1 0-1.42z"/><path d="m32.12 27.12a2 2 0 0 0 2.83 0l.71-.7 2.83 2.83-.71.7a5.01 5.01 0 0 1 -7.07 0l-5.66-5.66a5 5 0 0 1 0-7.07l.71-.7 2.83 2.83-.71.7a2 2 0 0 0 0 2.83z"/><path d="m38 3v2a2.006 2.006 0 0 1 -2 2h-8a2.006 2.006 0 0 1 -2-2v-2z"/><path d="m61 27v32a2.006 2.006 0 0 1 -2 2h-54a2.006 2.006 0 0 1 -2-2v-32l10 10h38z"/></g><path d="m61.707 26.293-12.707-12.707v-6.586a5.006 5.006 0 0 0 -5-5h-24a5.006 5.006 0 0 0 -5 5v6.586l-12.707 12.707a1 1 0 0 0 -.293.707v32a3 3 0 0 0 3 3h54a3 3 0 0 0 3-3v-32a1 1 0 0 0 -.293-.707zm-2.121.707-9 9h-1.586v-19.586zm-32.586-23h10v1a1 1 0 0 1 -1 1h-8a1 1 0 0 1 -1-1zm-7 0h5v1a3 3 0 0 0 3 3h8a3 3 0 0 0 3-3v-1h5a3 3 0 0 1 3 3v29h-30v-29a3 3 0 0 1 3-3zm-5 32h-1.586l-9-9 10.586-10.586zm44 24h-54a1 1 0 0 1 -1-1v-29.586l8.293 8.293a1 1 0 0 0 .707.293h38a1 1 0 0 0 .707-.293l8.293-8.293v29.586a1 1 0 0 1 -1 1z" fill="#3d9ae2"/><path d="m24.343 25 5.657 5.657a6.005 6.005 0 0 0 8.485 0 2 2 0 0 0 2.828 0l1.415-1.414a1 1 0 0 0 0-1.414l-5.657-5.657a1 1 0 0 0 -1.414 0l-1.414 1.414a2 2 0 0 0 0 2.828 1 1 0 0 1 -1.415 0l-4.242-4.242a1 1 0 0 1 0-1.415 2 2 0 0 0 2.828 0l1.414-1.414a1 1 0 0 0 0-1.414l-5.657-5.657a1.029 1.029 0 0 0 -1.414 0l-1.413 1.414a2 2 0 0 0 0 2.829 6.007 6.007 0 0 0 -.001 8.485zm12.021-.707 4.243 4.243-.707.708-4.243-4.244zm-9.9-9.9 4.244 4.243-.708.708-4.243-4.244zm.708 4.949a3 3 0 0 0 0 4.243l4.242 4.242a3 3 0 0 0 4.243 0l1.414 1.415a4.006 4.006 0 0 1 -5.657 0l-5.657-5.657a4.006 4.006 0 0 1 0-5.657z" fill="#3d9ae2"/></svg>