<svg width="259" height="256" xmlns="http://www.w3.org/2000/svg"><g fill="none" fill-rule="evenodd"><g transform="translate(144)"><g transform="translate(77.063 14.402)"><rect fill="#333" transform="rotate(-180 18.008 26.433)" width="36.016" height="52.866" rx="18.008"/><rect fill="#333" transform="rotate(-180 18.312 70.084)" x="8.477" y="43.651" width="19.67" height="52.866" rx="9.835"/><rect fill="#D85151" transform="rotate(90 18.019 52.077)" x="13.844" y="40.855" width="8.351" height="22.444" rx="4.175"/></g><g transform="translate(7.257 19.252)"><rect fill="#333" transform="rotate(-180 18.008 26.433)" width="36.016" height="52.866" rx="18.008"/><rect fill="#333" transform="rotate(-180 18.312 70.084)" x="8.477" y="43.651" width="19.67" height="52.866" rx="9.835"/><rect fill="#D85151" transform="rotate(90 18.019 52.077)" x="13.844" y="40.855" width="8.351" height="22.444" rx="4.175"/></g><rect fill="#EEBA64" x="21.717" y="6.642" width="76.358" height="112.083" rx="38.179"/><rect fill="#EEBA64" x="21.717" y="6.642" width="76.358" height="112.083" rx="38.179"/><ellipse fill="#717171" cx="64.158" cy="75.082" rx="2.053" ry="1.994"/><ellipse fill="#717171" cx="55.182" cy="75.082" rx="2.053" ry="1.994"/><rect fill="#333" transform="rotate(90 49.64 19.616)" x="30.817" y="-29.855" width="37.646" height="98.942" rx="18.823"/><ellipse fill="#3E1E01" cx="40.664" cy="55.628" rx="5.485" ry="5.335"/><ellipse fill="#3E1E01" cx="79.058" cy="55.628" rx="5.485" ry="5.335"/><ellipse fill="#D85151" opacity=".4" cx="40.914" cy="76.725" rx="8.726" ry="8.488"/><ellipse fill="#D85151" opacity=".4" cx="79.307" cy="76.725" rx="8.726" ry="8.488"/><g transform="rotate(-27 65.317 -126.771)"><ellipse fill="#D85151" cx="5.672" cy="5.578" rx="5.672" ry="5.578"/><ellipse fill="#D85151" cx="13.774" cy="5.578" rx="5.672" ry="5.578"/><ellipse fill="#873232" cx="9.723" cy="5.737" rx="3.241" ry="3.187"/></g><path d="M49.726 92.003h20.27c.057.238.087.481.087.728 0 3.08-4.577 5.577-10.222 5.577S49.64 95.811 49.64 92.731c0-.247.03-.49.087-.728z" fill="#AF2565" opacity=".89"/><g fill="#AF2565"><path d="M63.101 92.973H49.696a2.26 2.26 0 0 1-.057-.503c0-2.133 3.027-3.862 6.76-3.862 3.733 0 6.76 1.729 6.76 3.862 0 .17-.02.338-.058.503z"/><path d="M70.026 92.973H56.62a2.26 2.26 0 0 1-.057-.503c0-2.133 3.026-3.862 6.76-3.862 3.732 0 6.759 1.729 6.759 3.862 0 .17-.02.338-.057.503z"/></g><rect fill="#333" x="73.074" y="43.017" width="12.964" height="4.85" rx="2.425"/><rect fill="#333" x="34.182" y="43.017" width="12.964" height="4.85" rx="2.425"/></g><path d="M8 8h109M150 132h109M0 193h109" stroke="#B63564" stroke-width="4"/><path d="M8 26h83M176 168h83M8 44h83M176 149h83M8 62h83M8 80h83M176 186h83M0 213h83M0 233h83M0 255h83M176 212h83" stroke="#B63564" stroke-width="2"/><path d="M26 121c0-1.103-.897-2-2-2s-2 .897-2 2 .897 2 2 2 2-.897 2-2zm-2 1a1 1 0 0 1 0-2 1.001 1.001 0 0 1 0 2zm22.386 6.809l-4.61-1.154a.525.525 0 1 0-.255 1.02l4.541 1.137C43.89 135.75 38.182 140 31.5 140c-6.681 0-12.389-4.25-14.562-10.188l4.542-1.137a.526.526 0 1 0-.255-1.02l-4.61 1.154c-.161-.553-.291-1.119-.39-1.695h5.128a.526.526 0 0 0 0-1.052h-5.274A15.638 15.638 0 0 1 16 124.5c0-.096.006-.19.007-.286l5.218 1.306a.526.526 0 0 0 .255-1.02l-5.417-1.356a15.406 15.406 0 0 1 3.209-8.152c.063-.081.126-.163.19-.242.192-.236.388-.467.592-.69.076-.083.155-.163.232-.244.146-.154.295-.304.448-.451.094-.091.188-.183.285-.272.212-.195.428-.385.65-.568.09-.074.183-.143.275-.215.175-.138.352-.272.532-.4.088-.064.176-.128.265-.19.263-.18.53-.353.803-.516l.135-.078c.273-.16.552-.313.837-.457l.089-.045c.326-.162.657-.314.996-.454A15.405 15.405 0 0 1 31.5 109c2.085 0 4.075.416 5.892 1.166l.007.004a15.69 15.69 0 0 1 1.922.956c.045.026.09.05.135.078.273.163.54.337.803.516.089.062.177.126.265.19.18.128.357.262.531.4.092.071.186.141.276.216.222.182.438.372.65.566.097.09.192.182.287.275.15.145.298.294.443.446.079.083.16.164.236.248.203.222.399.452.589.686.066.082.13.166.196.25a15.402 15.402 0 0 1 3.205 8.148L41.52 124.5a.526.526 0 0 0 .255 1.02l5.218-1.306c.001.096.007.19.007.286 0 .527-.027 1.048-.078 1.562h-5.274a.526.526 0 1 0 0 1.052h5.127a15.222 15.222 0 0 1-.39 1.695zM17.995 115c-.74-1.107-1.436-2.812-1.77-4.37-.436-2.049-.233-3.589.56-4.226.334-.268.8-.404 1.384-.404 2.1 0 5.248 1.742 6.831 3.353-.328.14-.65.293-.967.454l-.133.068c-.31.16-.615.327-.913.506l-.025.014c-.277.167-.547.344-.812.527-.108.073-.213.149-.319.225-.164.118-.325.24-.485.364-.11.085-.22.168-.327.255-.222.182-.44.37-.652.563-.114.104-.225.212-.337.32-.13.125-.258.252-.385.38-.103.107-.207.212-.307.32-.204.22-.402.446-.594.677-.067.082-.131.167-.197.25-.15.188-.296.379-.438.573-.037.052-.078.1-.114.151zm26.836-9c.585 0 1.05.136 1.384.404.793.637.996 2.178.56 4.226-.334 1.56-1.031 3.264-1.77 4.37-.038-.054-.081-.104-.12-.159a17.44 17.44 0 0 0-.424-.554c-.07-.088-.137-.177-.208-.263a15.98 15.98 0 0 0-.59-.672c-.102-.11-.206-.216-.31-.323a17.108 17.108 0 0 0-.384-.38c-.11-.107-.221-.215-.336-.318-.213-.194-.43-.382-.653-.565-.106-.087-.215-.168-.323-.252a16.95 16.95 0 0 0-1.62-1.119l-.02-.01c-.3-.181-.607-.349-.919-.51l-.13-.067a16.43 16.43 0 0 0-.968-.455c1.583-1.61 4.73-3.353 6.83-3.353zm4.64 21.132c.292 0 .529-.234.529-.523a.526.526 0 0 0-.53-.524h-1.36c.049-.511.077-1.03.077-1.554 0-.183-.008-.363-.015-.544l1.261-.312a.523.523 0 0 0 .386-.634.533.533 0 0 0-.643-.38l-1.07.264a16.214 16.214 0 0 0-2.342-6.933c.921-1.209 1.793-3.214 2.197-5.094.533-2.484.201-4.352-.934-5.26-.528-.423-1.222-.638-2.06-.638-2.752 0-6.43 2.306-7.934 3.996a16.81 16.81 0 0 0-5.533-.934c-1.938 0-3.8.332-5.532.934-1.505-1.69-5.182-3.996-7.934-3.996-.838 0-1.532.215-2.06.638-1.136.908-1.467 2.776-.934 5.26.404 1.88 1.275 3.885 2.198 5.094a16.214 16.214 0 0 0-2.343 6.933l-1.07-.265a.533.533 0 0 0-.643.38c-.071.281.101.564.385.635l1.261.312c-.005.18-.014.361-.014.544 0 .524.028 1.043.077 1.554h-1.36a.527.527 0 0 0-.531.524c0 .29.237.523.53.523h1.494c.107.66.256 1.308.441 1.94l-1.898.47a.522.522 0 0 0 .129 1.03.546.546 0 0 0 .129-.016l1.964-.485C18.099 136.434 24.269 141 31.5 141c7.233 0 13.402-4.566 15.713-10.929l1.963.485a.53.53 0 0 0 .643-.38.523.523 0 0 0-.386-.634l-1.897-.47c.184-.632.333-1.28.44-1.94h1.494zM30 126a1.001 1.001 0 1 1 1 1c-.551 0-1-.448-1-1zm6.486 2.359a.505.505 0 0 0-.513.496c0 1.187-1 2.152-2.23 2.152s-2.23-.965-2.23-2.152v-.774c.936-.224 1.635-1.035 1.635-2.007 0-1.144-.964-2.074-2.148-2.074-1.184 0-2.147.93-2.147 2.074 0 .972.698 1.783 1.633 2.007v.774c0 1.187-1 2.152-2.229 2.152-1.23 0-2.23-.965-2.23-2.152a.505.505 0 0 0-.513-.496.505.505 0 0 0-.514.496c0 1.734 1.461 3.145 3.257 3.145A3.277 3.277 0 0 0 31 130.535 3.278 3.278 0 0 0 33.743 132c1.796 0 3.257-1.41 3.257-3.145a.505.505 0 0 0-.514-.496zM38 122a1 1 0 0 1 0-2 1.001 1.001 0 0 1 0 2zm0-3c-1.103 0-2 .897-2 2s.897 2 2 2 2-.897 2-2-.897-2-2-2zM27.421 159.992c0-1.042-.847-1.89-1.89-1.89-1.041 0-1.889.848-1.889 1.89 0 1.042.848 1.89 1.89 1.89 1.042 0 1.89-.848 1.89-1.89zm-1.89.985a.986.986 0 0 1 0-1.97c.544 0 .986.442.986.985a.986.986 0 0 1-.985.985zm11.391 4.592a.453.453 0 0 0-.538.346c-.149.689-.941 1.153-1.97 1.153-.733 0-1.962-.138-1.962-1.057v-.706a1.889 1.889 0 0 0 1.438-1.829c0-1.042-.848-1.89-1.89-1.89-1.042 0-1.89.848-1.89 1.89 0 .886.615 1.625 1.438 1.83v.705c0 .92-1.23 1.057-1.962 1.057-1.029 0-1.821-.464-1.97-1.154a.452.452 0 0 0-.884.192c.2.924 1.025 1.59 2.133 1.794 0 .012-.007.022-.007.035v3.583a3.15 3.15 0 0 0 3.146 3.146 3.15 3.15 0 0 0 3.146-3.146v-3.57l-.2-.011c1.204-.16 2.107-.855 2.318-1.83a.452.452 0 0 0-.346-.538zm-5.908-2.093a.987.987 0 0 1 1.971 0 .987.987 0 0 1-1.97 0zm.99 10.283a2.244 2.244 0 0 1-2.242-2.241v-3.555c1.027-.028 1.794-.291 2.238-.762.446.472 1.214.735 2.246.763v3.554a2.244 2.244 0 0 1-2.242 2.241zm13.1-4.778a14.494 14.494 0 0 0 1.48-6.396c0-4.285-1.857-8.144-4.81-10.815 4.53.986 10.322 7.094 10.322 11.316 0 3.999-2.105 5.778-6.993 5.895zM32 176.265c-7.544 0-13.68-6.137-13.68-13.68 0-7.544 6.136-13.68 13.68-13.68 7.543 0 13.68 6.136 13.68 13.68 0 7.543-6.137 13.68-13.68 13.68zm-20.096-13.18c0-4.221 5.791-10.33 10.32-11.315a14.55 14.55 0 0 0-4.809 10.815c0 2.293.534 4.463 1.481 6.396-4.887-.117-6.992-1.896-6.992-5.895zm41.096 0c0-5.082-7.313-12.36-12.42-12.36-.028 0-.053.014-.08.02A14.498 14.498 0 0 0 32 148a14.5 14.5 0 0 0-8.5 2.744c-.027-.005-.052-.018-.08-.018-5.108 0-12.42 7.277-12.42 12.36 0 6.09 4.78 6.807 8.389 6.81 2.528 4.345 7.233 7.274 12.611 7.274 5.378 0 10.082-2.93 12.61-7.274 3.61-.003 8.39-.72 8.39-6.81zm-14.532-2.108a.986.986 0 0 1 0-1.97c.543 0 .985.442.985.985a.986.986 0 0 1-.985.985zm0-2.875c-1.042 0-1.89.848-1.89 1.89 0 1.042.848 1.89 1.89 1.89 1.042 0 1.89-.848 1.89-1.89 0-1.042-.848-1.89-1.89-1.89z" fill="#4A4A4A"/><path stroke="#3D3958" stroke-width="2" d="M60 159.62l8.633 9.38L90 151M60 122.62l8.633 9.38L90 114"/></g></svg>